<svg xmlns="http://www.w3.org/2000/svg" viewBox="0 0 520 530" role="img"><title>basket_weave: immutable target pixels</title><rect width="100%" height="100%" fill="white"/><text x="20" y="18" font-family="sans-serif" font-size="14" font-weight="bold">basket_weave: immutable target pixels</text><rect x="20.000" y="20.000" width="40.000" height="40.000" fill="#242424"/><rect x="60.000" y="20.000" width="40.000" height="40.000" fill="#242424"/><rect x="100.000" y="20.000" width="40.000" height="40.000" fill="#f6f2e8"/><rect x="140.000" y="20.000" width="40.000" height="40.000" fill="#f6f2e8"/><rect x="180.000" y="20.000" width="40.000" height="40.000" fill="#242424"/><rect x="220.000" y="20.000" width="40.000" height="40.000" fill="#242424"/><rect x="260.000" y="20.000" width="40.000" height="40.000" fill="#f6f2e8"/><rect x="300.000" y="20.000" width="40.000" height="40.000" fill="#f6f2e8"/><rect x="340.000" y="20.000" width="40.000" height="40.000" fill="#242424"/><rect x="380.000" y="20.000" width="40.000" height="40.000" fill="#242424"/><rect x="420.000" y="20.000" width="40.000" height="40.000" fill="#f6f2e8"/><rect x="460.000" y="20.000" width="40.000" height="40.000" fill="#f6f2e8"/><rect x="20.000" y="60.000" width="40.000" height="40.000" fill="#f6f2e8"/><rect x="60.000" y="60.000" width="40.000" height="40.000" fill="#f6f2e8"/><rect x="100.000" y="60.000" width="40.000" height="40.000" fill="#242424"/><rect x="140.000" y="60.000" width="40.000" height="40.000" fill="#242424"/><rect x="180.000" y="60.000" width="40.000" height="40.000" fill="#f6f2e8"/><rect x="220.000" y="60.000" width="40.000" height="40.000" fill="#f6f2e8"/><rect x="260.000" y="60.000" width="40.000" height="40.000" fill="#242424"/><rect x="300.000" y="60.000" width="40.000" height="40.000" fill="#242424"/><rect x="340.000" y="60.000" width="40.000" height="40.000" fill="#f6f2e8"/><rect x="380.000" y="60.000" width="40.000" height="40.000" fill="#f6f2e8"/><rect x="420.000" y="60.000" width="40.000" height="40.000" fill="#242424"/><rect x="460.000" y="60.000" width="40.000" height="40.000" fill="#242424"/><rect x="20.000" y="100.000" width="40.000" height="40.000" fill="#f6f2e8"/><rect x="60.000" y="100.000" width="40.000" height="40.000" fill="#f6f2e8"/><rect x="100.000" y="100.000" width="40.000" height="40.000" fill="#242424"/><rect x="140.000" y="100.000" width="40.000" height="40.000" fill="#242424"/><rect x="180.000" y="100.000" width="40.000" height="40.000" fill="#f6f2e8"/><rect x="220.000" y="100.000" width="40.000" height="40.000" fill="#f6f2e8"/><rect x="260.000" y="100.000" width="40.000" height="40.000" fill="#242424"/><rect x="300.000" y="100.000" width="40.000" height="40.000" fill="#242424"/><rect x="340.000" y="100.000" width="40.000" height="40.000" fill="#f6f2e8"/><rect x="380.000" y="100.000" width="40.000" height="40.000" fill="#f6f2e8"/><rect x="420.000" y="100.000" width="40.000" height="40.000" fill="#242424"/><rect x="460.000" y="100.000" width="40.000" height="40.000" fill="#242424"/><rect x="20.000" y="140.000" width="40.000" height="40.000" fill="#242424"/><rect x="60.000" y="140.000" width="40.000" height="40.000" fill="#242424"/><rect x="100.000" y="140.000" width="40.000" height="40.000" fill="#f6f2e8"/><rect x="140.000" y="140.000" width="40.000" height="40.000" fill="#f6f2e8"/><rect x="180.000" y="140.000" width="40.000" height="40.000" fill="#242424"/><rect x="220.000" y="140.000" width="40.000" height="40.000" fill="#242424"/><rect x="260.000" y="140.000" width="40.000" height="40.000" fill="#f6f2e8"/><rect x="300.000" y="140.000" width="40.000" height="40.000" fill="#f6f2e8"/><rect x="340.000" y="140.000" width="40.000" height="40.000" fill="#242424"/><rect x="380.000" y="140.000" width="40.000" height="40.000" fill="#242424"/><rect x="420.000" y="140.000" width="40.000" height="40.000" fill="#f6f2e8"/><rect x="460.000" y="140.000" width="40.000" height="40.000" fill="#f6f2e8"/><rect x="20.000" y="180.000" width="40.000" height="40.000" fill="#242424"/><rect x="60.000" y="180.000" width="40.000" height="40.000" fill="#242424"/><rect x="100.000" y="180.000" width="40.000" height="40.000" fill="#f6f2e8"/><rect x="140.000" y="180.000" width="40.000" height="40.000" fill="#f6f2e8"/><rect x="180.000" y="180.000" width="40.000" height="40.000" fill="#242424"/><rect x="220.000" y="180.000" width="40.000" height="40.000" fill="#242424"/><rect x="260.000" y="180.000" width="40.000" height="40.000" fill="#f6f2e8"/><rect x="300.000" y="180.000" width="40.000" height="40.000" fill="#f6f2e8"/><rect x="340.000" y="180.000" width="40.000" height="40.000" fill="#242424"/><rect x="380.000" y="180.000" width="40.000" height="40.000" fill="#242424"/><rect x="420.000" y="180.000" width="40.000" height="40.000" fill="#f6f2e8"/><rect x="460.000" y="180.000" width="40.000" height="40.000" fill="#f6f2e8"/><rect x="20.000" y="220.000" width="40.000" height="40.000" fill="#f6f2e8"/><rect x="60.000" y="220.000" width="40.000" height="40.000" fill="#f6f2e8"/><rect x="100.000" y="220.000" width="40.000" height="40.000" fill="#242424"/><rect x="140.000" y="220.000" width="40.000" height="40.000" fill="#242424"/><rect x="180.000" y="220.000" width="40.000" height="40.000" fill="#f6f2e8"/><rect x="220.000" y="220.000" width="40.000" height="40.000" fill="#f6f2e8"/><rect x="260.000" y="220.000" width="40.000" height="40.000" fill="#242424"/><rect x="300.000" y="220.000" width="40.000" height="40.000" fill="#242424"/><rect x="340.000" y="220.000" width="40.000" height="40.000" fill="#f6f2e8"/><rect x="380.000" y="220.000" width="40.000" height="40.000" fill="#f6f2e8"/><rect x="420.000" y="220.000" width="40.000" height="40.000" fill="#242424"/><rect x="460.000" y="220.000" width="40.000" height="40.000" fill="#242424"/><rect x="20.000" y="260.000" width="40.000" height="40.000" fill="#f6f2e8"/><rect x="60.000" y="260.000" width="40.000" height="40.000" fill="#f6f2e8"/><rect x="100.000" y="260.000" width="40.000" height="40.000" fill="#242424"/><rect x="140.000" y="260.000" width="40.000" height="40.000" fill="#242424"/><rect x="180.000" y="260.000" width="40.000" height="40.000" fill="#f6f2e8"/><rect x="220.000" y="260.000" width="40.000" height="40.000" fill="#f6f2e8"/><rect x="260.000" y="260.000" width="40.000" height="40.000" fill="#242424"/><rect x="300.000" y="260.000" width="40.000" height="40.000" fill="#242424"/><rect x="340.000" y="260.000" width="40.000" height="40.000" fill="#f6f2e8"/><rect x="380.000" y="260.000" width="40.000" height="40.000" fill="#f6f2e8"/><rect x="420.000" y="260.000" width="40.000" height="40.000" fill="#242424"/><rect x="460.000" y="260.000" width="40.000" height="40.000" fill="#242424"/><rect x="20.000" y="300.000" width="40.000" height="40.000" fill="#242424"/><rect x="60.000" y="300.000" width="40.000" height="40.000" fill="#242424"/><rect x="100.000" y="300.000" width="40.000" height="40.000" fill="#f6f2e8"/><rect x="140.000" y="300.000" width="40.000" height="40.000" fill="#f6f2e8"/><rect x="180.000" y="300.000" width="40.000" height="40.000" fill="#242424"/><rect x="220.000" y="300.000" width="40.000" height="40.000" fill="#242424"/><rect x="260.000" y="300.000" width="40.000" height="40.000" fill="#f6f2e8"/><rect x="300.000" y="300.000" width="40.000" height="40.000" fill="#f6f2e8"/><rect x="340.000" y="300.000" width="40.000" height="40.000" fill="#242424"/><rect x="380.000" y="300.000" width="40.000" height="40.000" fill="#242424"/><rect x="420.000" y="300.000" width="40.000" height="40.000" fill="#f6f2e8"/><rect x="460.000" y="300.000" width="40.000" height="40.000" fill="#f6f2e8"/><rect x="20.000" y="340.000" width="40.000" height="40.000" fill="#242424"/><rect x="60.000" y="340.000" width="40.000" height="40.000" fill="#242424"/><rect x="100.000" y="340.000" width="40.000" height="40.000" fill="#f6f2e8"/><rect x="140.000" y="340.000" width="40.000" height="40.000" fill="#f6f2e8"/><rect x="180.000" y="340.000" width="40.000" height="40.000" fill="#242424"/><rect x="220.000" y="340.000" width="40.000" height="40.000" fill="#242424"/><rect x="260.000" y="340.000" width="40.000" height="40.000" fill="#f6f2e8"/><rect x="300.000" y="340.000" width="40.000" height="40.000" fill="#f6f2e8"/><rect x="340.000" y="340.000" width="40.000" height="40.000" fill="#242424"/><rect x="380.000" y="340.000" width="40.000" height="40.000" fill="#242424"/><rect x="420.000" y="340.000" width="40.000" height="40.000" fill="#f6f2e8"/><rect x="460.000" y="340.000" width="40.000" height="40.000" fill="#f6f2e8"/><rect x="20.000" y="380.000" width="40.000" height="40.000" fill="#f6f2e8"/><rect x="60.000" y="380.000" width="40.000" height="40.000" fill="#f6f2e8"/><rect x="100.000" y="380.000" width="40.000" height="40.000" fill="#242424"/><rect x="140.000" y="380.000" width="40.000" height="40.000" fill="#242424"/><rect x="180.000" y="380.000" width="40.000" height="40.000" fill="#f6f2e8"/><rect x="220.000" y="380.000" width="40.000" height="40.000" fill="#f6f2e8"/><rect x="260.000" y="380.000" width="40.000" height="40.000" fill="#242424"/><rect x="300.000" y="380.000" width="40.000" height="40.000" fill="#242424"/><rect x="340.000" y="380.000" width="40.000" height="40.000" fill="#f6f2e8"/><rect x="380.000" y="380.000" width="40.000" height="40.000" fill="#f6f2e8"/><rect x="420.000" y="380.000" width="40.000" height="40.000" fill="#242424"/><rect x="460.000" y="380.000" width="40.000" height="40.000" fill="#242424"/><rect x="20.000" y="420.000" width="40.000" height="40.000" fill="#f6f2e8"/><rect x="60.000" y="420.000" width="40.000" height="40.000" fill="#f6f2e8"/><rect x="100.000" y="420.000" width="40.000" height="40.000" fill="#242424"/><rect x="140.000" y="420.000" width="40.000" height="40.000" fill="#242424"/><rect x="180.000" y="420.000" width="40.000" height="40.000" fill="#f6f2e8"/><rect x="220.000" y="420.000" width="40.000" height="40.000" fill="#f6f2e8"/><rect x="260.000" y="420.000" width="40.000" height="40.000" fill="#242424"/><rect x="300.000" y="420.000" width="40.000" height="40.000" fill="#242424"/><rect x="340.000" y="420.000" width="40.000" height="40.000" fill="#f6f2e8"/><rect x="380.000" y="420.000" width="40.000" height="40.000" fill="#f6f2e8"/><rect x="420.000" y="420.000" width="40.000" height="40.000" fill="#242424"/><rect x="460.000" y="420.000" width="40.000" height="40.000" fill="#242424"/><rect x="20.000" y="460.000" width="40.000" height="40.000" fill="#242424"/><rect x="60.000" y="460.000" width="40.000" height="40.000" fill="#242424"/><rect x="100.000" y="460.000" width="40.000" height="40.000" fill="#f6f2e8"/><rect x="140.000" y="460.000" width="40.000" height="40.000" fill="#f6f2e8"/><rect x="180.000" y="460.000" width="40.000" height="40.000" fill="#242424"/><rect x="220.000" y="460.000" width="40.000" height="40.000" fill="#242424"/><rect x="260.000" y="460.000" width="40.000" height="40.000" fill="#f6f2e8"/><rect x="300.000" y="460.000" width="40.000" height="40.000" fill="#f6f2e8"/><rect x="340.000" y="460.000" width="40.000" height="40.000" fill="#242424"/><rect x="380.000" y="460.000" width="40.000" height="40.000" fill="#242424"/><rect x="420.000" y="460.000" width="40.000" height="40.000" fill="#f6f2e8"/><rect x="460.000" y="460.000" width="40.000" height="40.000" fill="#f6f2e8"/><rect x="20" y="20" width="480" height="480" fill="none" stroke="#111"/></svg>