<svg xmlns="http://www.w3.org/2000/svg" viewBox="0 0 520 530" role="img"><title>stripes: target pixels versus achieved replay rectangles</title><rect width="100%" height="100%" fill="white"/><text x="20" y="18" font-family="sans-serif" font-size="14" font-weight="bold">stripes: target pixels versus achieved replay rectangles</text><rect x="60.000" y="20.000" width="40.000" height="40.000" fill="#2d6ea3" fill-opacity=".74"/><rect x="140.000" y="20.000" width="40.000" height="40.000" fill="#2d6ea3" fill-opacity=".74"/><rect x="220.000" y="20.000" width="40.000" height="40.000" fill="#2d6ea3" fill-opacity=".74"/><rect x="300.000" y="20.000" width="40.000" height="40.000" fill="#2d6ea3" fill-opacity=".74"/><rect x="380.000" y="20.000" width="40.000" height="40.000" fill="#2d6ea3" fill-opacity=".74"/><rect x="460.000" y="20.000" width="40.000" height="40.000" fill="#2d6ea3" fill-opacity=".74"/><rect x="60.000" y="60.000" width="40.000" height="40.000" fill="#2d6ea3" fill-opacity=".74"/><rect x="140.000" y="60.000" width="40.000" height="40.000" fill="#2d6ea3" fill-opacity=".74"/><rect x="220.000" y="60.000" width="40.000" height="40.000" fill="#2d6ea3" fill-opacity=".74"/><rect x="300.000" y="60.000" width="40.000" height="40.000" fill="#2d6ea3" fill-opacity=".74"/><rect x="380.000" y="60.000" width="40.000" height="40.000" fill="#2d6ea3" fill-opacity=".74"/><rect x="460.000" y="60.000" width="40.000" height="40.000" fill="#2d6ea3" fill-opacity=".74"/><rect x="60.000" y="100.000" width="40.000" height="40.000" fill="#2d6ea3" fill-opacity=".74"/><rect x="140.000" y="100.000" width="40.000" height="40.000" fill="#2d6ea3" fill-opacity=".74"/><rect x="220.000" y="100.000" width="40.000" height="40.000" fill="#2d6ea3" fill-opacity=".74"/><rect x="300.000" y="100.000" width="40.000" height="40.000" fill="#2d6ea3" fill-opacity=".74"/><rect x="380.000" y="100.000" width="40.000" height="40.000" fill="#2d6ea3" fill-opacity=".74"/><rect x="460.000" y="100.000" width="40.000" height="40.000" fill="#2d6ea3" fill-opacity=".74"/><rect x="60.000" y="140.000" width="40.000" height="40.000" fill="#2d6ea3" fill-opacity=".74"/><rect x="140.000" y="140.000" width="40.000" height="40.000" fill="#2d6ea3" fill-opacity=".74"/><rect x="220.000" y="140.000" width="40.000" height="40.000" fill="#2d6ea3" fill-opacity=".74"/><rect x="300.000" y="140.000" width="40.000" height="40.000" fill="#2d6ea3" fill-opacity=".74"/><rect x="380.000" y="140.000" width="40.000" height="40.000" fill="#2d6ea3" fill-opacity=".74"/><rect x="460.000" y="140.000" width="40.000" height="40.000" fill="#2d6ea3" fill-opacity=".74"/><rect x="60.000" y="180.000" width="40.000" height="40.000" fill="#2d6ea3" fill-opacity=".74"/><rect x="140.000" y="180.000" width="40.000" height="40.000" fill="#2d6ea3" fill-opacity=".74"/><rect x="220.000" y="180.000" width="40.000" height="40.000" fill="#2d6ea3" fill-opacity=".74"/><rect x="300.000" y="180.000" width="40.000" height="40.000" fill="#2d6ea3" fill-opacity=".74"/><rect x="380.000" y="180.000" width="40.000" height="40.000" fill="#2d6ea3" fill-opacity=".74"/><rect x="460.000" y="180.000" width="40.000" height="40.000" fill="#2d6ea3" fill-opacity=".74"/><rect x="60.000" y="220.000" width="40.000" height="40.000" fill="#2d6ea3" fill-opacity=".74"/><rect x="140.000" y="220.000" width="40.000" height="40.000" fill="#2d6ea3" fill-opacity=".74"/><rect x="220.000" y="220.000" width="40.000" height="40.000" fill="#2d6ea3" fill-opacity=".74"/><rect x="300.000" y="220.000" width="40.000" height="40.000" fill="#2d6ea3" fill-opacity=".74"/><rect x="380.000" y="220.000" width="40.000" height="40.000" fill="#2d6ea3" fill-opacity=".74"/><rect x="460.000" y="220.000" width="40.000" height="40.000" fill="#2d6ea3" fill-opacity=".74"/><rect x="60.000" y="260.000" width="40.000" height="40.000" fill="#2d6ea3" fill-opacity=".74"/><rect x="140.000" y="260.000" width="40.000" height="40.000" fill="#2d6ea3" fill-opacity=".74"/><rect x="220.000" y="260.000" width="40.000" height="40.000" fill="#2d6ea3" fill-opacity=".74"/><rect x="300.000" y="260.000" width="40.000" height="40.000" fill="#2d6ea3" fill-opacity=".74"/><rect x="380.000" y="260.000" width="40.000" height="40.000" fill="#2d6ea3" fill-opacity=".74"/><rect x="460.000" y="260.000" width="40.000" height="40.000" fill="#2d6ea3" fill-opacity=".74"/><rect x="60.000" y="300.000" width="40.000" height="40.000" fill="#2d6ea3" fill-opacity=".74"/><rect x="140.000" y="300.000" width="40.000" height="40.000" fill="#2d6ea3" fill-opacity=".74"/><rect x="220.000" y="300.000" width="40.000" height="40.000" fill="#2d6ea3" fill-opacity=".74"/><rect x="300.000" y="300.000" width="40.000" height="40.000" fill="#2d6ea3" fill-opacity=".74"/><rect x="380.000" y="300.000" width="40.000" height="40.000" fill="#2d6ea3" fill-opacity=".74"/><rect x="460.000" y="300.000" width="40.000" height="40.000" fill="#2d6ea3" fill-opacity=".74"/><rect x="60.000" y="340.000" width="40.000" height="40.000" fill="#2d6ea3" fill-opacity=".74"/><rect x="140.000" y="340.000" width="40.000" height="40.000" fill="#2d6ea3" fill-opacity=".74"/><rect x="220.000" y="340.000" width="40.000" height="40.000" fill="#2d6ea3" fill-opacity=".74"/><rect x="300.000" y="340.000" width="40.000" height="40.000" fill="#2d6ea3" fill-opacity=".74"/><rect x="380.000" y="340.000" width="40.000" height="40.000" fill="#2d6ea3" fill-opacity=".74"/><rect x="460.000" y="340.000" width="40.000" height="40.000" fill="#2d6ea3" fill-opacity=".74"/><rect x="60.000" y="380.000" width="40.000" height="40.000" fill="#2d6ea3" fill-opacity=".74"/><rect x="140.000" y="380.000" width="40.000" height="40.000" fill="#2d6ea3" fill-opacity=".74"/><rect x="220.000" y="380.000" width="40.000" height="40.000" fill="#2d6ea3" fill-opacity=".74"/><rect x="300.000" y="380.000" width="40.000" height="40.000" fill="#2d6ea3" fill-opacity=".74"/><rect x="380.000" y="380.000" width="40.000" height="40.000" fill="#2d6ea3" fill-opacity=".74"/><rect x="460.000" y="380.000" width="40.000" height="40.000" fill="#2d6ea3" fill-opacity=".74"/><rect x="60.000" y="420.000" width="40.000" height="40.000" fill="#2d6ea3" fill-opacity=".74"/><rect x="140.000" y="420.000" width="40.000" height="40.000" fill="#2d6ea3" fill-opacity=".74"/><rect x="220.000" y="420.000" width="40.000" height="40.000" fill="#2d6ea3" fill-opacity=".74"/><rect x="300.000" y="420.000" width="40.000" height="40.000" fill="#2d6ea3" fill-opacity=".74"/><rect x="380.000" y="420.000" width="40.000" height="40.000" fill="#2d6ea3" fill-opacity=".74"/><rect x="460.000" y="420.000" width="40.000" height="40.000" fill="#2d6ea3" fill-opacity=".74"/><rect x="60.000" y="460.000" width="40.000" height="40.000" fill="#2d6ea3" fill-opacity=".74"/><rect x="140.000" y="460.000" width="40.000" height="40.000" fill="#2d6ea3" fill-opacity=".74"/><rect x="220.000" y="460.000" width="40.000" height="40.000" fill="#2d6ea3" fill-opacity=".74"/><rect x="300.000" y="460.000" width="40.000" height="40.000" fill="#2d6ea3" fill-opacity=".74"/><rect x="380.000" y="460.000" width="40.000" height="40.000" fill="#2d6ea3" fill-opacity=".74"/><rect x="460.000" y="460.000" width="40.000" height="40.000" fill="#2d6ea3" fill-opacity=".74"/><rect x="61.379" y="20.000" width="41.379" height="41.379" fill="#d1493f" fill-opacity=".82"/><rect x="144.138" y="20.000" width="41.379" height="41.379" fill="#d1493f" fill-opacity=".82"/><rect x="226.897" y="20.000" width="41.379" height="41.379" fill="#d1493f" fill-opacity=".82"/><rect x="309.655" y="20.000" width="41.379" height="41.379" fill="#d1493f" fill-opacity=".82"/><rect x="392.414" y="20.000" width="41.379" height="41.379" fill="#d1493f" fill-opacity=".82"/><rect x="475.172" y="20.000" width="24.828" height="41.379" fill="#d1493f" fill-opacity=".82"/><rect x="61.379" y="61.379" width="41.379" height="41.379" fill="#d1493f" fill-opacity=".82"/><rect x="144.138" y="61.379" width="41.379" height="41.379" fill="#d1493f" fill-opacity=".82"/><rect x="226.897" y="61.379" width="41.379" height="41.379" fill="#d1493f" fill-opacity=".82"/><rect x="309.655" y="61.379" width="41.379" height="41.379" fill="#d1493f" fill-opacity=".82"/><rect x="392.414" y="61.379" width="41.379" height="41.379" fill="#d1493f" fill-opacity=".82"/><rect x="475.172" y="61.379" width="24.828" height="41.379" fill="#d1493f" fill-opacity=".82"/><rect x="61.379" y="102.759" width="41.379" height="41.379" fill="#d1493f" fill-opacity=".82"/><rect x="144.138" y="102.759" width="41.379" height="41.379" fill="#d1493f" fill-opacity=".82"/><rect x="226.897" y="102.759" width="41.379" height="41.379" fill="#d1493f" fill-opacity=".82"/><rect x="309.655" y="102.759" width="41.379" height="41.379" fill="#d1493f" fill-opacity=".82"/><rect x="392.414" y="102.759" width="41.379" height="41.379" fill="#d1493f" fill-opacity=".82"/><rect x="475.172" y="102.759" width="24.828" height="41.379" fill="#d1493f" fill-opacity=".82"/><rect x="61.379" y="144.138" width="41.379" height="41.379" fill="#d1493f" fill-opacity=".82"/><rect x="144.138" y="144.138" width="41.379" height="41.379" fill="#d1493f" fill-opacity=".82"/><rect x="226.897" y="144.138" width="41.379" height="41.379" fill="#d1493f" fill-opacity=".82"/><rect x="309.655" y="144.138" width="41.379" height="41.379" fill="#d1493f" fill-opacity=".82"/><rect x="392.414" y="144.138" width="41.379" height="41.379" fill="#d1493f" fill-opacity=".82"/><rect x="475.172" y="144.138" width="24.828" height="41.379" fill="#d1493f" fill-opacity=".82"/><rect x="61.379" y="185.517" width="41.379" height="41.379" fill="#d1493f" fill-opacity=".82"/><rect x="144.138" y="185.517" width="41.379" height="41.379" fill="#d1493f" fill-opacity=".82"/><rect x="226.897" y="185.517" width="41.379" height="41.379" fill="#d1493f" fill-opacity=".82"/><rect x="309.655" y="185.517" width="41.379" height="41.379" fill="#d1493f" fill-opacity=".82"/><rect x="392.414" y="185.517" width="41.379" height="41.379" fill="#d1493f" fill-opacity=".82"/><rect x="475.172" y="185.517" width="24.828" height="41.379" fill="#d1493f" fill-opacity=".82"/><rect x="61.379" y="226.897" width="41.379" height="41.379" fill="#d1493f" fill-opacity=".82"/><rect x="144.138" y="226.897" width="41.379" height="41.379" fill="#d1493f" fill-opacity=".82"/><rect x="226.897" y="226.897" width="41.379" height="41.379" fill="#d1493f" fill-opacity=".82"/><rect x="309.655" y="226.897" width="41.379" height="41.379" fill="#d1493f" fill-opacity=".82"/><rect x="392.414" y="226.897" width="41.379" height="41.379" fill="#d1493f" fill-opacity=".82"/><rect x="475.172" y="226.897" width="24.828" height="41.379" fill="#d1493f" fill-opacity=".82"/><rect x="61.379" y="268.276" width="41.379" height="41.379" fill="#d1493f" fill-opacity=".82"/><rect x="144.138" y="268.276" width="41.379" height="41.379" fill="#d1493f" fill-opacity=".82"/><rect x="226.897" y="268.276" width="41.379" height="41.379" fill="#d1493f" fill-opacity=".82"/><rect x="309.655" y="268.276" width="41.379" height="41.379" fill="#d1493f" fill-opacity=".82"/><rect x="392.414" y="268.276" width="41.379" height="41.379" fill="#d1493f" fill-opacity=".82"/><rect x="475.172" y="268.276" width="24.828" height="41.379" fill="#d1493f" fill-opacity=".82"/><rect x="61.379" y="309.655" width="41.379" height="41.379" fill="#d1493f" fill-opacity=".82"/><rect x="144.138" y="309.655" width="41.379" height="41.379" fill="#d1493f" fill-opacity=".82"/><rect x="226.897" y="309.655" width="41.379" height="41.379" fill="#d1493f" fill-opacity=".82"/><rect x="309.655" y="309.655" width="41.379" height="41.379" fill="#d1493f" fill-opacity=".82"/><rect x="392.414" y="309.655" width="41.379" height="41.379" fill="#d1493f" fill-opacity=".82"/><rect x="475.172" y="309.655" width="24.828" height="41.379" fill="#d1493f" fill-opacity=".82"/><rect x="61.379" y="351.034" width="41.379" height="41.379" fill="#d1493f" fill-opacity=".82"/><rect x="144.138" y="351.034" width="41.379" height="41.379" fill="#d1493f" fill-opacity=".82"/><rect x="226.897" y="351.034" width="41.379" height="41.379" fill="#d1493f" fill-opacity=".82"/><rect x="309.655" y="351.034" width="41.379" height="41.379" fill="#d1493f" fill-opacity=".82"/><rect x="392.414" y="351.034" width="41.379" height="41.379" fill="#d1493f" fill-opacity=".82"/><rect x="475.172" y="351.034" width="24.828" height="41.379" fill="#d1493f" fill-opacity=".82"/><rect x="61.379" y="392.414" width="41.379" height="41.379" fill="#d1493f" fill-opacity=".82"/><rect x="144.138" y="392.414" width="41.379" height="41.379" fill="#d1493f" fill-opacity=".82"/><rect x="226.897" y="392.414" width="41.379" height="41.379" fill="#d1493f" fill-opacity=".82"/><rect x="309.655" y="392.414" width="41.379" height="41.379" fill="#d1493f" fill-opacity=".82"/><rect x="392.414" y="392.414" width="41.379" height="41.379" fill="#d1493f" fill-opacity=".82"/><rect x="475.172" y="392.414" width="24.828" height="41.379" fill="#d1493f" fill-opacity=".82"/><rect x="61.379" y="433.793" width="41.379" height="41.379" fill="#d1493f" fill-opacity=".82"/><rect x="144.138" y="433.793" width="41.379" height="41.379" fill="#d1493f" fill-opacity=".82"/><rect x="226.897" y="433.793" width="41.379" height="41.379" fill="#d1493f" fill-opacity=".82"/><rect x="309.655" y="433.793" width="41.379" height="41.379" fill="#d1493f" fill-opacity=".82"/><rect x="392.414" y="433.793" width="41.379" height="41.379" fill="#d1493f" fill-opacity=".82"/><rect x="475.172" y="433.793" width="24.828" height="41.379" fill="#d1493f" fill-opacity=".82"/><rect x="61.379" y="475.172" width="41.379" height="24.828" fill="#d1493f" fill-opacity=".82"/><rect x="144.138" y="475.172" width="41.379" height="24.828" fill="#d1493f" fill-opacity=".82"/><rect x="226.897" y="475.172" width="41.379" height="24.828" fill="#d1493f" fill-opacity=".82"/><rect x="309.655" y="475.172" width="41.379" height="24.828" fill="#d1493f" fill-opacity=".82"/><rect x="392.414" y="475.172" width="41.379" height="24.828" fill="#d1493f" fill-opacity=".82"/><rect x="475.172" y="475.172" width="24.828" height="24.828" fill="#d1493f" fill-opacity=".82"/><rect x="61.379" y="20.000" width="38.621" height="40.000" fill="#78548b"/><rect x="61.379" y="60.000" width="38.621" height="1.379" fill="#78548b"/><rect x="144.138" y="20.000" width="35.862" height="40.000" fill="#78548b"/><rect x="144.138" y="60.000" width="35.862" height="1.379" fill="#78548b"/><rect x="226.897" y="20.000" width="33.103" height="40.000" fill="#78548b"/><rect x="226.897" y="60.000" width="33.103" height="1.379" fill="#78548b"/><rect x="309.655" y="20.000" width="30.345" height="40.000" fill="#78548b"/><rect x="309.655" y="60.000" width="30.345" height="1.379" fill="#78548b"/><rect x="392.414" y="20.000" width="27.586" height="40.000" fill="#78548b"/><rect x="392.414" y="60.000" width="27.586" height="1.379" fill="#78548b"/><rect x="475.172" y="20.000" width="24.828" height="40.000" fill="#78548b"/><rect x="475.172" y="60.000" width="24.828" height="1.379" fill="#78548b"/><rect x="61.379" y="61.379" width="38.621" height="38.621" fill="#78548b"/><rect x="61.379" y="100.000" width="38.621" height="2.759" fill="#78548b"/><rect x="144.138" y="61.379" width="35.862" height="38.621" fill="#78548b"/><rect x="144.138" y="100.000" width="35.862" height="2.759" fill="#78548b"/><rect x="226.897" y="61.379" width="33.103" height="38.621" fill="#78548b"/><rect x="226.897" y="100.000" width="33.103" height="2.759" fill="#78548b"/><rect x="309.655" y="61.379" width="30.345" height="38.621" fill="#78548b"/><rect x="309.655" y="100.000" width="30.345" height="2.759" fill="#78548b"/><rect x="392.414" y="61.379" width="27.586" height="38.621" fill="#78548b"/><rect x="392.414" y="100.000" width="27.586" height="2.759" fill="#78548b"/><rect x="475.172" y="61.379" width="24.828" height="38.621" fill="#78548b"/><rect x="475.172" y="100.000" width="24.828" height="2.759" fill="#78548b"/><rect x="61.379" y="102.759" width="38.621" height="37.241" fill="#78548b"/><rect x="61.379" y="140.000" width="38.621" height="4.138" fill="#78548b"/><rect x="144.138" y="102.759" width="35.862" height="37.241" fill="#78548b"/><rect x="144.138" y="140.000" width="35.862" height="4.138" fill="#78548b"/><rect x="226.897" y="102.759" width="33.103" height="37.241" fill="#78548b"/><rect x="226.897" y="140.000" width="33.103" height="4.138" fill="#78548b"/><rect x="309.655" y="102.759" width="30.345" height="37.241" fill="#78548b"/><rect x="309.655" y="140.000" width="30.345" height="4.138" fill="#78548b"/><rect x="392.414" y="102.759" width="27.586" height="37.241" fill="#78548b"/><rect x="392.414" y="140.000" width="27.586" height="4.138" fill="#78548b"/><rect x="475.172" y="102.759" width="24.828" height="37.241" fill="#78548b"/><rect x="475.172" y="140.000" width="24.828" height="4.138" fill="#78548b"/><rect x="61.379" y="144.138" width="38.621" height="35.862" fill="#78548b"/><rect x="61.379" y="180.000" width="38.621" height="5.517" fill="#78548b"/><rect x="144.138" y="144.138" width="35.862" height="35.862" fill="#78548b"/><rect x="144.138" y="180.000" width="35.862" height="5.517" fill="#78548b"/><rect x="226.897" y="144.138" width="33.103" height="35.862" fill="#78548b"/><rect x="226.897" y="180.000" width="33.103" height="5.517" fill="#78548b"/><rect x="309.655" y="144.138" width="30.345" height="35.862" fill="#78548b"/><rect x="309.655" y="180.000" width="30.345" height="5.517" fill="#78548b"/><rect x="392.414" y="144.138" width="27.586" height="35.862" fill="#78548b"/><rect x="392.414" y="180.000" width="27.586" height="5.517" fill="#78548b"/><rect x="475.172" y="144.138" width="24.828" height="35.862" fill="#78548b"/><rect x="475.172" y="180.000" width="24.828" height="5.517" fill="#78548b"/><rect x="61.379" y="185.517" width="38.621" height="34.483" fill="#78548b"/><rect x="61.379" y="220.000" width="38.621" height="6.897" fill="#78548b"/><rect x="144.138" y="185.517" width="35.862" height="34.483" fill="#78548b"/><rect x="144.138" y="220.000" width="35.862" height="6.897" fill="#78548b"/><rect x="226.897" y="185.517" width="33.103" height="34.483" fill="#78548b"/><rect x="226.897" y="220.000" width="33.103" height="6.897" fill="#78548b"/><rect x="309.655" y="185.517" width="30.345" height="34.483" fill="#78548b"/><rect x="309.655" y="220.000" width="30.345" height="6.897" fill="#78548b"/><rect x="392.414" y="185.517" width="27.586" height="34.483" fill="#78548b"/><rect x="392.414" y="220.000" width="27.586" height="6.897" fill="#78548b"/><rect x="475.172" y="185.517" width="24.828" height="34.483" fill="#78548b"/><rect x="475.172" y="220.000" width="24.828" height="6.897" fill="#78548b"/><rect x="61.379" y="226.897" width="38.621" height="33.103" fill="#78548b"/><rect x="61.379" y="260.000" width="38.621" height="8.276" fill="#78548b"/><rect x="144.138" y="226.897" width="35.862" height="33.103" fill="#78548b"/><rect x="144.138" y="260.000" width="35.862" height="8.276" fill="#78548b"/><rect x="226.897" y="226.897" width="33.103" height="33.103" fill="#78548b"/><rect x="226.897" y="260.000" width="33.103" height="8.276" fill="#78548b"/><rect x="309.655" y="226.897" width="30.345" height="33.103" fill="#78548b"/><rect x="309.655" y="260.000" width="30.345" height="8.276" fill="#78548b"/><rect x="392.414" y="226.897" width="27.586" height="33.103" fill="#78548b"/><rect x="392.414" y="260.000" width="27.586" height="8.276" fill="#78548b"/><rect x="475.172" y="226.897" width="24.828" height="33.103" fill="#78548b"/><rect x="475.172" y="260.000" width="24.828" height="8.276" fill="#78548b"/><rect x="61.379" y="268.276" width="38.621" height="31.724" fill="#78548b"/><rect x="61.379" y="300.000" width="38.621" height="9.655" fill="#78548b"/><rect x="144.138" y="268.276" width="35.862" height="31.724" fill="#78548b"/><rect x="144.138" y="300.000" width="35.862" height="9.655" fill="#78548b"/><rect x="226.897" y="268.276" width="33.103" height="31.724" fill="#78548b"/><rect x="226.897" y="300.000" width="33.103" height="9.655" fill="#78548b"/><rect x="309.655" y="268.276" width="30.345" height="31.724" fill="#78548b"/><rect x="309.655" y="300.000" width="30.345" height="9.655" fill="#78548b"/><rect x="392.414" y="268.276" width="27.586" height="31.724" fill="#78548b"/><rect x="392.414" y="300.000" width="27.586" height="9.655" fill="#78548b"/><rect x="475.172" y="268.276" width="24.828" height="31.724" fill="#78548b"/><rect x="475.172" y="300.000" width="24.828" height="9.655" fill="#78548b"/><rect x="61.379" y="309.655" width="38.621" height="30.345" fill="#78548b"/><rect x="61.379" y="340.000" width="38.621" height="11.034" fill="#78548b"/><rect x="144.138" y="309.655" width="35.862" height="30.345" fill="#78548b"/><rect x="144.138" y="340.000" width="35.862" height="11.034" fill="#78548b"/><rect x="226.897" y="309.655" width="33.103" height="30.345" fill="#78548b"/><rect x="226.897" y="340.000" width="33.103" height="11.034" fill="#78548b"/><rect x="309.655" y="309.655" width="30.345" height="30.345" fill="#78548b"/><rect x="309.655" y="340.000" width="30.345" height="11.034" fill="#78548b"/><rect x="392.414" y="309.655" width="27.586" height="30.345" fill="#78548b"/><rect x="392.414" y="340.000" width="27.586" height="11.034" fill="#78548b"/><rect x="475.172" y="309.655" width="24.828" height="30.345" fill="#78548b"/><rect x="475.172" y="340.000" width="24.828" height="11.034" fill="#78548b"/><rect x="61.379" y="351.034" width="38.621" height="28.966" fill="#78548b"/><rect x="61.379" y="380.000" width="38.621" height="12.414" fill="#78548b"/><rect x="144.138" y="351.034" width="35.862" height="28.966" fill="#78548b"/><rect x="144.138" y="380.000" width="35.862" height="12.414" fill="#78548b"/><rect x="226.897" y="351.034" width="33.103" height="28.966" fill="#78548b"/><rect x="226.897" y="380.000" width="33.103" height="12.414" fill="#78548b"/><rect x="309.655" y="351.034" width="30.345" height="28.966" fill="#78548b"/><rect x="309.655" y="380.000" width="30.345" height="12.414" fill="#78548b"/><rect x="392.414" y="351.034" width="27.586" height="28.966" fill="#78548b"/><rect x="392.414" y="380.000" width="27.586" height="12.414" fill="#78548b"/><rect x="475.172" y="351.034" width="24.828" height="28.966" fill="#78548b"/><rect x="475.172" y="380.000" width="24.828" height="12.414" fill="#78548b"/><rect x="61.379" y="392.414" width="38.621" height="27.586" fill="#78548b"/><rect x="61.379" y="420.000" width="38.621" height="13.793" fill="#78548b"/><rect x="144.138" y="392.414" width="35.862" height="27.586" fill="#78548b"/><rect x="144.138" y="420.000" width="35.862" height="13.793" fill="#78548b"/><rect x="226.897" y="392.414" width="33.103" height="27.586" fill="#78548b"/><rect x="226.897" y="420.000" width="33.103" height="13.793" fill="#78548b"/><rect x="309.655" y="392.414" width="30.345" height="27.586" fill="#78548b"/><rect x="309.655" y="420.000" width="30.345" height="13.793" fill="#78548b"/><rect x="392.414" y="392.414" width="27.586" height="27.586" fill="#78548b"/><rect x="392.414" y="420.000" width="27.586" height="13.793" fill="#78548b"/><rect x="475.172" y="392.414" width="24.828" height="27.586" fill="#78548b"/><rect x="475.172" y="420.000" width="24.828" height="13.793" fill="#78548b"/><rect x="61.379" y="433.793" width="38.621" height="26.207" fill="#78548b"/><rect x="61.379" y="460.000" width="38.621" height="15.172" fill="#78548b"/><rect x="144.138" y="433.793" width="35.862" height="26.207" fill="#78548b"/><rect x="144.138" y="460.000" width="35.862" height="15.172" fill="#78548b"/><rect x="226.897" y="433.793" width="33.103" height="26.207" fill="#78548b"/><rect x="226.897" y="460.000" width="33.103" height="15.172" fill="#78548b"/><rect x="309.655" y="433.793" width="30.345" height="26.207" fill="#78548b"/><rect x="309.655" y="460.000" width="30.345" height="15.172" fill="#78548b"/><rect x="392.414" y="433.793" width="27.586" height="26.207" fill="#78548b"/><rect x="392.414" y="460.000" width="27.586" height="15.172" fill="#78548b"/><rect x="475.172" y="433.793" width="24.828" height="26.207" fill="#78548b"/><rect x="475.172" y="460.000" width="24.828" height="15.172" fill="#78548b"/><rect x="61.379" y="475.172" width="38.621" height="24.828" fill="#78548b"/><rect x="144.138" y="475.172" width="35.862" height="24.828" fill="#78548b"/><rect x="226.897" y="475.172" width="33.103" height="24.828" fill="#78548b"/><rect x="309.655" y="475.172" width="30.345" height="24.828" fill="#78548b"/><rect x="392.414" y="475.172" width="27.586" height="24.828" fill="#78548b"/><rect x="475.172" y="475.172" width="24.828" height="24.828" fill="#78548b"/><rect x="20" y="20" width="480" height="480" fill="none" stroke="#111"/><rect x="20" y="508" width="12" height="12" fill="#2d6ea3"/><text x="37" y="519" font-family="sans-serif" font-size="11">target B</text><rect x="115" y="508" width="12" height="12" fill="#d1493f"/><text x="132" y="519" font-family="sans-serif" font-size="11">achieved B; overlap = purple</text></svg>